<svg xmlns="http://www.w3.org/2000/svg" viewBox="0 0 800 500" preserveAspectRatio="xMidYMid meet" style="background-color: white; width: 100%; height: auto; display: block;">
  <!-- Style Definition -->
  <style>
    .wall { fill: none; stroke: #333; stroke-width: 4; stroke-linecap: square; }
    .dim-line { fill: none; stroke: #e74c3c; stroke-width: 1.5; }
    .dim-text { fill: #e74c3c; font-family: 'Segoe UI', Arial, sans-serif; font-size: 14px; font-weight: 600; text-anchor: middle; }
    .room-label { fill: #333; font-family: 'Segoe UI', Arial, sans-serif; font-size: 22px; font-weight: 700; text-anchor: middle; }
    .area-label { fill: #666; font-family: 'Segoe UI', Arial, sans-serif; font-size: 15px; text-anchor: middle; }
    .floor-title { fill: none; stroke: #ddd; stroke-width: 1.5; font-family: 'Segoe UI', Arial, sans-serif; font-size: 60px; font-weight: 700; text-anchor: end; }
    .door-leaf { fill: none; stroke: #333; stroke-width: 2.5; }
    .door-arc { fill: none; stroke: #ccc; stroke-width: 1; }
  </style>

  <!-- Title (matching outlined style) -->
  <text x="750" y="80" class="floor-title">Garden Office</text>

  <!-- Main Walls -->
  <line x1="100" y1="150" x2="700" y2="150" class="wall" /> <!-- Top -->
  <line x1="100" y1="150" x2="100" y2="450" class="wall" /> <!-- Left -->
  <line x1="700" y1="150" x2="700" y2="450" class="wall" /> <!-- Right -->
  
  <!-- Bottom Wall with Opening -->
  <!-- Opening from x=570 to 650 (80px wide, 50px from right corner at 700) -->
  <line x1="100" y1="450" x2="570" y2="450" class="wall" />
  <line x1="650" y1="450" x2="700" y2="450" class="wall" />

  <!-- Professional Door Symbol (Single Inward Swing) -->
  <!-- Opening at 570 - 650. Door hinged at 650 -->
  <line x1="650" y1="450" x2="590" y2="390" class="door-leaf" /> <!-- Angled leaf -->
  <path d="M 570 450 A 80 80 0 0 1 590 390" class="door-arc" /> <!-- Thin arc -->

  <!-- Internal Divider -->
  <line x1="350" y1="150" x2="350" y2="450" class="wall" />

  <!-- Labels -->
  <text x="225" y="290" class="room-label">Office Room 1</text>
  <text x="225" y="315" class="area-label">7.5 m² / 81 ft²</text>
  
  <text x="525" y="290" class="room-label">Office Room 2</text>
  <text x="525" y="315" class="area-label">10.2 m² / 110 ft²</text>

  <!-- Dimensions -->
  <line x1="100" y1="120" x2="700" y2="120" class="dim-line" />
  <text x="400" y="110" class="dim-text">6000</text>
  <line x1="100" y1="480" x2="350" y2="480" class="dim-line" />
  <text x="225" y="475" class="dim-text">2500</text>
  <line x1="360" y1="480" x2="700" y2="480" class="dim-line" />
  <text x="530" y="475" class="dim-text">3400</text>
  <line x1="70" y1="150" x2="70" y2="450" class="dim-line" />
  <text x="60" y="300" class="dim-text" transform="rotate(-90 60,300)">3000</text>
</svg>
